HIERARCHY
ROOT Hips
{
	OFFSET 0.00000 0.00000 0.00000
	CHANNELS 6 Xposition Yposition Zposition Zrotation Yrotation Xrotation 
	JOINT LHipJoint
	{
		OFFSET 0 0 0
		CHANNELS 3 Zrotation Yrotation Xrotation
		JOINT LeftUpLeg
		{
			OFFSET 1.56857 -1.73443 1.15205
			CHANNELS 3 Zrotation Yrotation Xrotation
			JOINT LeftLeg
			{
				OFFSET 2.39362 -6.57643 0.00000
				CHANNELS 3 Zrotation Yrotation Xrotation
				JOINT LeftFoot
				{
					OFFSET 2.50952 -6.89485 0.00000
					CHANNELS 3 Zrotation Yrotation Xrotation
					JOINT LeftToeBase
					{
						OFFSET 0.17171 -0.47178 1.88682
						CHANNELS 3 Zrotation Yrotation Xrotation
						End Site
						{
							OFFSET 0.00000 -0.00000 0.98146
						}
					}
				}
			}
		}
	}
	JOINT RHipJoint
	{
		OFFSET 0 0 0
		CHANNELS 3 Zrotation Yrotation Xrotation
		JOINT RightUpLeg
		{
			OFFSET -1.28153 -1.73443 1.15205
			CHANNELS 3 Zrotation Yrotation Xrotation
			JOINT RightLeg
			{
				OFFSET -2.26861 -6.23296 0.00000
				CHANNELS 3 Zrotation Yrotation Xrotation
				JOINT RightFoot
				{
					OFFSET -2.54143 -6.98254 0.00000
					CHANNELS 3 Zrotation Yrotation Xrotation
					JOINT RightToeBase
					{
						OFFSET -0.23309 -0.64041 1.93119
						CHANNELS 3 Zrotation Yrotation Xrotation
						End Site
						{
							OFFSET -0.00000 -0.00000 1.02013
						}
					}
				}
			}
		}
	}
	JOINT LowerBack
	{
		OFFSET 0 0 0
		CHANNELS 3 Zrotation Yrotation Xrotation
		JOINT Spine
		{
			OFFSET -0.07096 2.10460 -0.27878
			CHANNELS 3 Zrotation Yrotation Xrotation
			JOINT Spine1
			{
				OFFSET -0.00826 2.13662 -0.08279
				CHANNELS 3 Zrotation Yrotation Xrotation
				JOINT Neck
				{
					OFFSET 0 0 0
					CHANNELS 3 Zrotation Yrotation Xrotation
					JOINT Neck1
					{
						OFFSET 0.03239 1.77799 0.24435
						CHANNELS 3 Zrotation Yrotation Xrotation
						JOINT Head
						{
							OFFSET 0.01026 1.74194 -0.49664
							CHANNELS 3 Zrotation Yrotation Xrotation
							End Site
							{
								OFFSET 0.00170 1.83057 -0.19653
							}
						}
					}
				}
				JOINT LeftShoulder
				{
					OFFSET 0 0 0
					CHANNELS 3 Zrotation Yrotation Xrotation
					JOINT LeftArm
					{
						OFFSET 3.19178 1.35907 -0.31412
						CHANNELS 3 Zrotation Yrotation Xrotation
						JOINT LeftForeArm
						{
							OFFSET 4.85247 -0.00000 -0.00000
							CHANNELS 3 Zrotation Yrotation Xrotation
							JOINT LeftHand
							{
								OFFSET 3.55584 -0.00000 0.00000
								CHANNELS 3 Zrotation Yrotation Xrotation
								JOINT LeftFingerBase
								{
									OFFSET 0 0 0
									CHANNELS 3 Zrotation Yrotation Xrotation
									JOINT LeftHandIndex1
									{
										OFFSET 0.69320 -0.00000 0.00000
										CHANNELS 3 Zrotation Yrotation Xrotation
										End Site
										{
											OFFSET 0.55888 -0.00000 0.00000
										}
									}
								}
								JOINT LThumb
								{
									OFFSET 0 0 0
									CHANNELS 3 Zrotation Yrotation Xrotation
									End Site
									{
										OFFSET 0.56741 -0.00000 0.56741
									}
								}
							}
						}
					}
				}
				JOINT RightShoulder
				{
					OFFSET 0 0 0
					CHANNELS 3 Zrotation Yrotation Xrotation
					JOINT RightArm
					{
						OFFSET -3.28999 1.24191 -0.26899
						CHANNELS 3 Zrotation Yrotation Xrotation
						JOINT RightForeArm
						{
							OFFSET -4.64462 -0.00000 0.00000
							CHANNELS 3 Zrotation Yrotation Xrotation
							JOINT RightHand
							{
								OFFSET -3.40703 -0.00000 0.00000
								CHANNELS 3 Zrotation Yrotation Xrotation
								JOINT RightFingerBase
								{
									OFFSET 0 0 0
									CHANNELS 3 Zrotation Yrotation Xrotation
									JOINT RightHandIndex1
									{
										OFFSET -0.61958 -0.00000 0.00000
										CHANNELS 3 Zrotation Yrotation Xrotation
										End Site
										{
											OFFSET -0.49952 -0.00000 0.00000
										}
									}
								}
								JOINT RThumb
								{
									OFFSET 0 0 0
									CHANNELS 3 Zrotation Yrotation Xrotation
									End Site
									{
										OFFSET -0.50715 -0.00000 0.50715
									}
								}
							}
						}
					}
				}
			}
		}
	}
}
MOTION
Frames: 12
Frame Time: 0.0606061
0.00 0.00 0.00 359.0180 80.9210 354.4450 0.0000 0.0000 0.0000 -13.2902 -9.7220 -14.3396 1.8713 8.5928 24.5295 -0.0016 1.6872 1.0178 0.1962 -2.8527 -7.8689 0.0000 0.0000 0.0000 24.9923 0.0730 20.1685 -2.8824 -10.5022 30.6190 -0.9095 2.8181 -17.2926 -0.1746 -2.6916 7.4213 -1.3836 3.2122 7.1041 -1.5475 4.1993 2.1074 -1.1756 2.1223 -1.7806 -1.0681 -3.5138 -20.2487 4.8667 -5.8037 25.6740 1.0862 -1.9355 11.9960 -0.0000 0.0000 0.0000 -85.4113 4.0141 14.8664 10.7312 -17.8751 -1.6925 -0.0000 -0.0000 17.0263 21.4245 -22.7604 -8.6320 -7.1250 0.0000 -0.0000 -4.7176 5.7885 4.2324 -0.0000 0.0000 0.0000 83.1234 0.5407 36.2076 -25.7356 36.9465 -8.7283 0.0000 -0.0000 -1.8476 -14.8505 -30.2481 7.6080 7.1250 -0.0000 -0.0000 19.0166 -60.0655 -7.1444
0.00 0.00 0.00 389.6650 78.4661 384.1660 0.0000 0.0000 0.0000 -21.6268 -6.3967 -8.6599 1.4890 7.7089 21.8332 -0.0016 1.6872 1.0178 0.1962 -2.8527 -7.8689 0.0000 0.0000 0.0000 15.6102 0.1637 10.4179 -6.7358 -15.1053 47.8680 -0.0172 -1.8862 -3.8751 -2.4504 -9.7471 28.1617 -7.5830 2.7759 8.1391 -2.8557 3.0933 2.1041 0.9563 1.6193 -2.6047 -0.6861 -2.9053 -20.1856 4.2083 -4.8940 26.5052 0.9314 -1.5573 12.2428 0.0000 -0.0000 0.0000 -86.0551 1.2069 24.0727 13.8842 -22.5689 -2.7835 -0.0000 -0.0000 6.0549 21.3406 -18.6980 -7.1392 -7.1250 0.0000 -0.0000 -4.4351 10.0584 3.6035 0.0000 -0.0000 0.0000 83.3625 -4.0529 34.7856 -20.9251 31.7408 -6.0105 0.0000 0.0000 2.3454 -11.2934 -30.7887 5.8365 7.1250 -0.0000 -0.0000 23.1734 -59.7393 -8.6177
0.00 0.00 0.00 360.9150 -1.4302 360.4620 0.0000 0.0000 0.0000 -6.6904 6.2852 -22.7210 5.1682 13.5708 41.5446 0.3040 3.0122 -11.9679 0.0316 -1.1482 -3.1566 0.0000 0.0000 0.0000 26.3116 -10.0998 9.4801 -0.0516 -1.4661 4.0323 -0.5751 19.3515 -18.1091 -0.4930 -4.5018 12.4930 3.7094 2.7655 9.4272 0.9843 4.0297 3.0856 -1.4917 2.0103 -1.8843 4.7242 0.7141 -20.5225 -1.4431 -0.1773 29.8851 -1.4078 0.2832 13.5324 -0.0000 0.0000 0.0000 -88.8482 14.3260 31.0771 14.5853 -23.5653 -3.0582 -0.0000 -0.0000 10.0015 6.3738 -21.1272 -2.3057 -7.1250 0.0000 -0.0000 -14.1041 9.2341 12.0386 -0.0000 0.0000 0.0000 85.2962 6.3940 43.1326 -31.2115 41.9094 -12.2109 0.0000 0.0000 1.8457 -12.8642 -26.6665 5.8520 7.1250 -0.0000 -0.0000 18.6605 -56.2450 -5.2755
0.00 0.00 0.00 353.9430 14.4925 353.7900 0.0000 0.0000 0.0000 -26.2415 14.4680 -17.5655 0.7844 5.6540 15.7837 0.5080 13.9556 -24.7641 4.1940 12.4142 37.2136 0.0000 0.0000 0.0000 19.8539 -10.8821 3.4240 -6.0568 -14.4831 45.2091 0.5031 12.4656 5.2642 -0.0727 -1.7400 4.7876 -1.1250 3.6418 6.9142 -0.4604 4.7620 1.8616 -0.2516 2.3800 -1.9962 6.5974 3.5954 -20.3280 -2.0117 3.6639 29.2003 -1.2657 2.1090 13.4178 -0.0000 0.0000 0.0000 -83.4348 16.5993 26.9595 13.2910 -21.7121 -2.5599 -0.0000 -0.0000 10.1184 10.2926 -20.8113 -3.6916 -7.1250 0.0000 -0.0000 -11.6367 9.2018 9.8367 -0.0000 0.0000 0.0000 87.6279 11.8233 40.8703 -28.9008 39.9324 -10.6970 0.0000 -0.0000 -1.7495 -13.2300 -30.5940 6.8232 7.1250 -0.0000 -0.0000 20.9961 -60.0097 -7.8981
0.00 0.00 0.00 358.4400 27.4358 354.5300 0.0000 0.0000 0.0000 -32.9406 10.5824 -9.1770 0.6307 5.0815 14.1412 0.9782 8.2509 -23.4006 3.8456 11.9521 35.5628 0.0000 0.0000 0.0000 11.7730 -4.9223 -7.4715 -11.1420 -18.0039 63.2419 -0.0036 7.6015 10.9177 -0.3390 -3.7416 10.3507 -5.7520 2.8974 7.8990 -1.9566 3.3899 2.6109 0.8725 1.7019 -1.9256 8.1985 5.8795 -19.0377 -5.6137 7.7939 28.6401 -2.2277 3.6286 13.3891 0.0000 0.0000 0.0000 -82.3820 8.5402 26.8674 15.4531 -24.7735 -3.4136 -0.0000 -0.0000 9.5371 12.3974 -19.9105 -4.2811 -7.1250 0.0000 -0.0000 -10.2815 9.8892 8.5047 0.0000 0.0000 0.0000 86.7519 9.5635 41.9566 -25.2819 36.4907 -8.4570 0.0000 0.0000 2.3490 -7.0046 -26.4356 3.1309 7.1250 -0.0000 -0.0000 24.3187 -54.8829 -6.1740
0.00 0.00 0.00 324.9830 82.4131 323.1940 0.0000 0.0000 0.0000 -12.5392 2.4743 -23.8401 1.9795 8.8233 25.2442 0.1399 1.8683 -8.0108 0.6087 4.9939 13.8911 0.0000 0.0000 0.0000 21.6323 -10.6440 12.5277 -0.0530 -1.4860 4.0871 0.4717 23.1768 -12.7504 -0.0126 -0.7255 1.9937 7.2794 3.3941 11.1990 1.1191 5.4660 3.3090 -3.5874 2.7769 -2.2221 5.9579 1.9588 -21.0808 -6.1115 2.8451 25.7601 -2.8252 1.1609 12.1713 -0.0000 -0.0000 0.0000 -84.0796 18.1915 16.0717 10.2728 -17.1651 -1.5545 -0.0000 -0.0000 23.8170 9.6245 -22.6142 -3.7308 -7.1250 0.0000 -0.0000 -12.0798 7.4884 10.6481 -0.0000 -0.0000 0.0000 81.9305 16.9130 34.4988 -24.3329 35.5143 -7.8991 0.0000 -0.0000 -2.2951 -14.8675 -30.3356 7.6367 7.1250 -0.0000 -0.0000 19.0647 -60.1520 -7.2028
0.00 0.00 0.00 518.1110 83.4828 513.1080 0.0000 0.0000 0.0000 -24.7863 7.2536 16.0325 4.4807 12.7740 38.5282 -0.0022 -0.9123 0.7193 0.7401 5.4958 15.3283 0.0000 0.0000 0.0000 4.2567 5.8388 -19.8195 -4.7896 -13.1429 39.9059 -0.6316 1.4911 -14.5761 -0.4973 -4.5213 12.5480 -6.7225 0.4319 8.4375 0.2883 0.1358 3.0569 4.0672 0.0828 -1.5594 4.6704 3.0577 -21.0371 -2.9771 4.0693 27.5399 -1.2100 2.0245 12.8601 0.0000 -0.0000 0.0000 -84.2004 0.6848 36.4547 20.0669 -30.7228 -5.5655 -0.0000 -0.0000 2.9508 23.7516 -23.5411 -9.9683 -7.1250 0.0000 -0.0000 -3.3520 4.5635 3.0800 0.0000 -0.0000 0.0000 85.4062 -8.4379 23.2261 -14.1050 22.8847 -2.8688 0.0000 0.0000 14.6193 -8.9740 -33.2505 4.9487 7.1250 -0.0000 -0.0000 27.7643 -61.3805 -11.5703
0.00 0.00 0.00 569.8680 81.6206 564.3490 0.0000 0.0000 0.0000 -16.0986 4.4143 3.9092 9.1354 16.8940 56.5571 -0.0032 1.5648 -1.8422 0.9666 6.2595 17.5393 0.0000 0.0000 0.0000 4.2567 5.8388 -19.8195 -4.7896 -13.1429 39.9059 -0.6316 1.4911 -14.5761 -0.4973 -4.5213 12.5480 0.7888 1.2631 8.9713 1.5321 1.8949 3.1514 0.9403 0.9899 -1.7895 4.4507 2.1203 -21.4561 -2.1533 2.5257 27.6746 -1.1181 1.4392 12.9119 0.0000 0.0000 0.0000 -84.1378 6.5030 33.7816 13.8931 -22.5817 -2.7869 -0.0000 -0.0000 11.6993 16.6235 -17.3421 -5.0856 -7.1250 0.0000 -0.0000 -7.4619 12.0449 5.7910 0.0000 0.0000 0.0000 84.7515 -1.5450 31.7269 -17.5180 27.5355 -4.3241 0.0000 0.0000 7.2288 -12.0206 -35.9671 7.1284 7.1250 -0.0000 -0.0000 27.4270 -64.5291 -13.4440
0.00 0.00 0.00 538.7800 0.4642 536.6780 0.0000 0.0000 0.0000 -21.8521 4.3657 14.0919 5.3547 13.7724 42.3332 0.2982 -2.7690 11.7126 0.6700 5.2346 14.5789 0.0000 0.0000 0.0000 19.1572 5.8525 -11.3867 -1.7004 -8.2120 23.3600 -0.5931 0.4279 -14.4096 -0.3139 -3.6017 9.9588 -3.5472 0.3436 10.2391 0.7906 0.4099 3.2037 2.7637 0.3242 -2.4253 4.7818 2.1996 -22.3705 -0.8257 2.5154 27.3391 -0.6143 1.8122 12.9478 -0.0000 -0.0000 0.0000 -88.4193 6.1123 22.5018 9.4345 -15.8501 -1.3163 -0.0000 -0.0000 27.7522 10.0988 -22.2896 -3.8647 -7.1250 0.0000 -0.0000 -11.7791 7.7605 10.3067 -0.0000 -0.0000 0.0000 85.7026 -6.3558 23.7494 -15.2669 24.5166 -3.3359 0.0000 0.0000 12.9377 -13.0427 -31.4887 6.8992 7.1250 -0.0000 -0.0000 21.9179 -60.7907 -8.6749
0.00 0.00 0.00 540.8490 7.8239 535.7740 0.0000 0.0000 0.0000 -12.4259 2.6493 -21.1244 5.0497 13.4395 41.0368 0.3231 0.0180 -10.7447 0.0005 -0.1492 -0.4098 0.0000 0.0000 0.0000 19.3931 -3.3882 18.8252 -3.3172 -11.1916 32.9287 0.1040 6.7869 -1.4340 -0.2547 -3.2472 8.9676 -0.2846 3.1142 6.5055 -1.6074 4.2624 2.2117 -1.8092 2.2004 -1.2566 5.0636 3.8328 -21.3511 -1.1743 3.0312 28.6408 -0.8762 1.3408 13.3244 0.0000 0.0000 0.0000 -82.6720 4.4839 26.3764 14.0092 -22.7478 -2.8317 -0.0000 -0.0000 13.0841 13.3068 -23.8835 -5.4699 -7.1250 0.0000 -0.0000 -9.8405 5.8153 8.9286 0.0000 0.0000 0.0000 86.3991 -0.2737 38.2212 -24.5256 35.7151 -8.0113 0.0000 -0.0000 -2.7519 -14.0972 -30.5275 7.2695 7.1250 -0.0000 -0.0000 20.0290 -60.1509 -7.5839
0.00 0.00 0.00 533.6950 6.6045 533.7420 0.0000 0.0000 0.0000 -12.4259 2.6493 -21.1244 5.0497 13.4395 41.0368 0.3231 0.0180 -10.7447 0.0005 -0.1492 -0.4098 0.0000 0.0000 0.0000 9.4620 -1.5445 9.9587 -7.4052 -15.6638 50.3907 -0.1089 1.3537 6.8845 -0.1781 -2.7183 7.4955 -7.7873 2.9022 7.3030 -3.6199 3.6811 2.4996 0.2734 2.0193 -1.7131 5.4058 4.6521 -21.0128 -2.3521 4.5060 28.5280 -1.1372 1.8557 13.3043 0.0000 0.0000 0.0000 -81.4957 2.0219 30.1442 17.7190 -27.7959 -4.4174 -0.0000 -0.0000 6.1663 14.0677 -23.3101 -5.6628 -7.1250 0.0000 -0.0000 -9.3425 6.2940 8.3769 0.0000 0.0000 0.0000 86.7078 -6.4760 39.5048 -20.0135 30.6585 -5.5382 0.0000 -0.0000 -1.1438 -12.9299 -31.2871 6.7991 7.1250 -0.0000 -0.0000 21.8699 -60.5786 -8.5439
0.00 0.00 0.00 529.8660 -25.9165 540.1380 0.0000 0.0000 0.0000 -36.7583 -4.2569 21.0056 0.5535 4.7658 13.2417 0.9901 -11.4284 -18.3293 0.0238 0.9960 2.7377 0.0000 0.0000 0.0000 -7.0710 9.7491 -13.5972 -0.2940 -3.4868 9.6371 0.1751 12.8386 -6.5143 -0.1218 -2.2503 6.1979 -11.9389 1.4501 7.0746 -2.7981 0.7233 2.7027 3.7030 0.1725 -1.2716 6.8326 6.2332 -20.2721 -5.4611 7.5496 28.9810 -2.0541 2.9676 13.7110 0.0000 -0.0000 0.0000 -83.3956 1.0460 50.3517 29.9359 -40.8384 -11.3677 -0.0000 0.0000 -1.9863 19.4041 -26.2039 -8.8407 -7.1250 0.0000 -0.0000 -6.2902 2.5692 6.0389 0.0000 -0.0000 0.0000 89.2679 -14.9493 18.7995 -13.4688 21.9702 -2.6261 0.0000 0.0000 8.9890 -10.0768 -30.8752 5.2107 7.1250 -0.0000 -0.0000 24.4991 -59.5382 -9.0277
